# xmcd
#
# Track frame offsets:
#   150
#   19273
#   32290
#   50205
#   61175
#   74568
#   86458
#   102445
#   111953
#   123048
#   133565
#   148423
#   160930
#   172815
#   183995
#   198528
#   211025
#   222640
#   237210
#
# Disc length: 3358 seconds
#
# Revision: 0
# Processed by: cddbd v1.5.1PL2 Copyright (c) Steve Scherf et al.
# Submitted via: uFREEDB 1.6.2
#
DISCID=150d1c13
DTITLE=OLD SONGS COLLECT 2 - OLD SONGS COLLECT 2
DYEAR=1970
DGENRE=UnClassifiable
TTITLE0=I can't stop loving you
TTITLE1=I really don't want to know
TTITLE2=Honey
TTITLE3=Devoted to you
TTITLE4=Tell Laura I love her
TTITLE5=Be-Bop-A-Lula
TTITLE6=Over the rainbow
TTITLE7=Whatever will be, will be
TTITLE8=Yellow Bird
TTITLE9=Oh ! Carol
TTITLE10=The Exodus song 
TTITLE11=Moon river
TTITLE12=Only you
TTITLE13=Diana
TTITLE14=Donna Donna
TTITLE15=By the time I get to Phonenix
TTITLE16=Frankie
TTITLE17=The young one
TTITLE18=Both sides now
EXTD=
EXTT0=
EXTT1=
EXTT2=
EXTT3=
EXTT4=
EXTT5=
EXTT6=
EXTT7=
EXTT8=
EXTT9=
EXTT10=
EXTT11=
EXTT12=
EXTT13=
EXTT14=
EXTT15=
EXTT16=
EXTT17=
EXTT18=
PLAYORDER=
